<?xml version="1.0" standalone="no"?>
<!DOCTYPE svg PUBLIC "-//W3C//DTD SVG 20010904//EN"
 "http://www.w3.org/TR/2001/REC-SVG-20010904/DTD/svg10.dtd">
<svg version="1.0" xmlns="http://www.w3.org/2000/svg"
 width="200.000000pt" height="200.000000pt" viewBox="0 0 200.000000 200.000000"
 preserveAspectRatio="xMidYMid meet">

<g transform="translate(0.000000,200.000000) scale(0.100000,-0.100000)"
fill="current" stroke="none">
<path d="M360 1839 c-66 -27 -129 -121 -154 -231 -18 -80 -23 -139 -42 -543
-20 -433 -20 -570 1 -665 43 -189 159 -294 287 -260 76 21 128 87 229 294 48
99 85 167 82 149 -3 -17 0 -71 7 -119 27 -204 148 -350 274 -330 84 14 143 65
218 191 70 117 532 981 559 1045 70 168 55 344 -38 432 -50 48 -127 62 -181
34 -73 -38 -119 -108 -297 -454 -32 -62 -60 -111 -61 -109 -2 2 1 58 7 124 19
222 -18 355 -115 421 -87 58 -185 39 -273 -55 -50 -53 -77 -102 -220 -398
l-52 -110 6 70 c4 39 7 133 8 210 0 185 -26 259 -107 301 -31 16 -101 17 -138
3z"/>
</g>
</svg>
